<svg width="414" height="387" viewBox="0 0 414 387" fill="none" xmlns="http://www.w3.org/2000/svg">
<g clip-path="url(#clip0_54_9)">
<path d="M0 -6.10352e-05C136.593 -6.10352e-05 273.186 -6.10352e-05 413.918 -6.10352e-05C413.918 127.71 413.918 255.42 413.918 387C277.325 387 140.732 387 0 387C0 259.29 0 131.58 0 -6.10352e-05Z" fill="black"/>
<path d="M217.566 45C218.736 45.3901 218.736 45.3901 219.191 46.0684C219.336 46.364 219.481 46.6596 219.631 46.9641C219.798 47.2995 219.965 47.6348 220.137 47.9803C220.315 48.3476 220.493 48.7148 220.676 49.0932C220.958 49.6635 220.958 49.6635 221.246 50.2453C221.852 51.4698 222.452 52.6967 223.052 53.924C223.835 55.5167 224.62 57.1084 225.406 58.7C225.601 59.0946 225.795 59.4892 225.995 59.8957C227.354 62.6442 228.76 65.3629 230.199 68.0702C232.128 71.7073 233.947 75.3984 235.775 79.0868C237.455 82.4719 239.153 85.843 240.924 89.1812C243.363 93.7814 245.667 98.4481 247.983 103.111C249.882 106.934 251.785 110.751 253.787 114.521C256.107 118.89 258.314 123.317 260.523 127.743C261.114 128.927 261.706 130.11 262.298 131.292C265.106 136.898 267.857 142.527 270.548 148.189C271.23 149.62 271.923 151.046 272.618 152.471C272.74 152.72 272.862 152.97 272.987 153.227C273.229 153.723 273.471 154.219 273.713 154.716C276.012 159.433 278.26 164.169 280.456 168.935C281.954 172.179 283.495 175.402 285.057 178.616C287.041 182.704 288.98 186.81 290.885 190.936C292.093 193.549 293.309 196.159 294.537 198.763C294.679 199.064 294.821 199.366 294.968 199.677C295.668 201.161 296.369 202.645 297.071 204.128C297.326 204.67 297.582 205.211 297.838 205.753C297.954 205.998 298.07 206.243 298.19 206.496C299.881 210.082 299.881 210.082 299.881 211.582C299.217 212.106 299.217 212.106 298.278 212.641C297.931 212.842 297.584 213.043 297.226 213.25C296.847 213.464 296.468 213.678 296.077 213.898C295.286 214.354 294.494 214.811 293.703 215.268C293.301 215.499 292.898 215.73 292.483 215.968C290.724 216.985 288.988 218.039 287.251 219.091C283.955 221.077 280.62 222.981 277.254 224.846C276.646 225.184 276.038 225.522 275.43 225.861C273.98 226.668 272.529 227.474 271.076 228.277C270.472 228.613 269.87 228.953 269.27 229.296C268.955 229.475 268.641 229.654 268.316 229.838C268.03 230.002 267.743 230.167 267.448 230.336C266.721 230.698 266.721 230.698 265.941 230.698C265.76 230.335 265.58 229.972 265.394 229.598C264.704 228.211 264.013 226.824 263.321 225.438C263.026 224.845 262.731 224.253 262.436 223.66C260.632 220.031 258.789 216.425 256.894 212.843C255.208 209.653 253.564 206.442 251.924 203.229C251.031 201.479 250.136 199.731 249.242 197.982C249.066 197.638 248.89 197.295 248.708 196.94C246.626 192.874 244.521 188.819 242.414 184.765C241.324 182.667 240.24 180.567 239.154 178.466C236.522 173.373 233.875 168.288 231.22 163.207C230.456 161.744 229.692 160.281 228.928 158.818C228.642 158.271 228.642 158.271 228.351 157.714C227.28 155.661 226.214 153.606 225.153 151.547C222.707 146.802 220.241 142.08 217.566 137.459C216.391 138.49 215.669 139.754 214.893 141.09C214.748 141.336 214.603 141.581 214.454 141.835C214.141 142.365 213.83 142.896 213.519 143.427C212.685 144.851 211.846 146.271 211.007 147.692C210.836 147.981 210.666 148.27 210.49 148.568C208.887 151.282 207.257 153.98 205.618 156.672C205.345 157.122 205.071 157.571 204.798 158.02C203.848 159.582 202.896 161.142 201.944 162.703C200.99 164.268 200.036 165.834 199.084 167.4C198.949 167.622 198.814 167.844 198.675 168.073C195.597 173.137 192.578 178.236 189.557 183.335C187.104 187.474 184.629 191.599 182.127 195.709C181.578 196.611 181.029 197.513 180.48 198.415C180.342 198.642 180.204 198.869 180.061 199.102C177.406 203.468 174.791 207.857 172.188 212.255C170.161 215.679 168.12 219.095 166.07 222.505C163.651 226.529 161.246 230.56 158.852 234.599C158.231 235.647 157.609 236.696 156.987 237.744C156.834 238.002 156.681 238.26 156.524 238.525C155.473 240.294 154.416 242.059 153.356 243.822C151.85 246.326 150.367 248.843 148.893 251.366C146.564 255.353 144.219 259.329 141.858 263.297C139.4 267.429 136.999 271.591 134.627 275.772C134.385 276.198 134.143 276.624 133.894 277.063C133.663 277.468 133.433 277.874 133.195 278.293C132.368 279.725 131.505 281.133 130.627 282.536C129.629 284.378 129.539 286.382 129.788 288.435C130.635 290.265 131.481 290.963 133.336 291.708C137.385 293.005 142.076 291.678 146.032 290.656C146.382 290.566 146.733 290.477 147.094 290.385C147.406 290.301 147.717 290.217 148.038 290.131C148.974 289.985 149.573 290.093 150.465 290.386C141.492 293.174 132.506 295.852 123.425 298.262C122.964 298.385 122.964 298.385 122.493 298.51C119.06 299.426 115.62 300.277 112.143 301.012C111.841 301.076 111.538 301.14 111.226 301.206C107.858 301.901 104.624 302.171 101.188 302.187C100.767 302.195 100.347 302.203 99.9144 302.212C96.256 302.229 92.9027 301.737 89.9961 299.359C88.1138 297.463 86.8759 295.827 86.7532 293.093C86.9237 287.873 89.3557 283.301 91.5565 278.682C91.868 278.027 91.868 278.027 92.1857 277.359C95.3333 270.754 98.5819 264.198 101.844 257.649C102.229 256.876 102.614 256.101 102.998 255.327C105.039 251.219 107.119 247.145 109.38 243.152C110.346 241.446 111.248 239.724 112.111 237.964C113.561 235.021 115.095 232.125 116.646 229.235C116.773 228.998 116.9 228.762 117.031 228.518C118.835 225.158 120.667 221.814 122.515 218.478C123.731 216.274 124.86 214.041 125.971 211.783C126.92 209.914 127.941 208.09 128.967 206.262C130.347 203.798 131.692 201.316 133.031 198.83C134.717 195.703 136.44 192.601 138.2 189.515C140.118 186.152 141.937 182.747 143.713 179.307C145.029 176.763 146.39 174.25 147.792 171.753C149.139 169.348 150.45 166.925 151.757 164.499C153.46 161.34 155.199 158.205 156.975 155.087C158.662 152.125 160.286 149.14 161.857 146.114C163.312 143.326 164.864 140.596 166.422 137.864C168.038 135.02 169.599 132.15 171.141 129.266C173.057 125.685 175.023 122.138 177.034 118.609C178.865 115.387 180.618 112.126 182.366 108.858C183.846 106.097 185.364 103.362 186.917 100.641C188.801 97.3377 190.617 94.0015 192.403 90.6442C194.385 86.9171 196.418 83.2243 198.511 79.5577C200.094 76.7738 201.621 73.9623 203.131 71.1381C205.044 67.5618 207.007 64.0198 209.016 60.4968C210.935 57.118 212.778 53.6998 214.608 50.272C214.933 49.6643 214.933 49.6643 215.264 49.0445C215.455 48.6868 215.645 48.3292 215.841 47.9608C216.391 46.9575 216.97 45.977 217.566 45Z" fill="#FEFDFD"/>
<path d="M313.535 159.306C327.001 159.023 344.917 159.651 355.301 169.424C356.009 170.179 356.624 170.95 357.229 171.789C357.525 172.18 357.525 172.18 357.828 172.579C359.956 175.957 359.711 180.518 359.03 184.332C356.342 195.746 345.743 206.312 336.943 213.532C336.74 213.702 336.537 213.871 336.327 214.046C327.55 221.365 318.143 227.97 308.493 234.086C307.664 234.611 306.838 235.14 306.012 235.669C291.458 244.956 276.451 253.492 261.25 261.67C260.128 262.276 259.01 262.887 257.891 263.5C249.23 268.229 240.414 272.666 231.61 277.122C231.245 277.307 230.881 277.491 230.505 277.681C222.583 281.692 214.644 285.634 206.563 289.317C204.874 290.089 203.192 290.875 201.51 291.66C193.704 295.299 185.855 298.804 177.919 302.149C176.496 302.75 175.075 303.356 173.655 303.964C156.766 311.192 139.668 317.858 122.331 323.932C121.234 324.317 120.138 324.703 119.042 325.09C109.858 328.328 100.616 331.239 91.2328 333.843C90.3673 334.085 89.503 334.331 88.6388 334.577C84.6304 335.715 80.6061 336.719 76.5369 337.615C76.2357 337.682 75.9344 337.748 75.6241 337.817C68.7685 339.322 61.8826 340.809 54.8364 340.882C54.3755 340.888 54.3755 340.888 53.9053 340.895C51.57 340.858 49.2843 340.444 47.4729 338.859C46.3263 336.279 47.5097 333.698 48.435 331.24C49.3758 328.904 50.5182 326.675 51.6911 324.449C51.8161 324.209 51.9412 323.969 52.07 323.723C54.6756 318.734 57.5079 313.895 60.4313 309.086C61.0476 308.072 61.6591 307.056 62.2685 306.038C64.4722 302.375 66.7892 298.79 69.1356 295.216C70.5112 293.12 71.8608 291.012 73.1721 288.874C75.6438 284.866 78.3398 281.003 81.0027 277.12C81.7163 276.079 82.428 275.037 83.1385 273.993C85.6683 270.282 88.2269 266.591 90.7958 262.906C92.46 260.517 94.1108 258.12 95.7504 255.714C97.5277 253.107 99.3326 250.521 101.158 247.948C102.67 245.814 104.158 243.664 105.634 241.505C107.458 238.838 109.318 236.196 111.175 233.552C113.479 230.271 115.772 226.984 118.036 223.675C118.245 223.37 118.455 223.064 118.671 222.748C120.13 220.611 121.56 218.457 122.966 216.285C123.546 215.483 123.546 215.483 124.327 215.093C123.7 217.324 122.62 219.226 121.498 221.237C121.072 222.011 120.646 222.784 120.22 223.558C119.997 223.962 119.774 224.365 119.545 224.781C116.171 230.911 112.897 237.092 109.697 243.314C108.549 245.547 107.394 247.775 106.218 249.993C100.685 260.446 95.2859 271.026 90.4106 281.804C90.2178 282.225 90.0251 282.647 89.8264 283.081C88.191 286.782 86.2618 291.434 87.5212 295.505C88.6228 298.017 90.4865 299.721 92.9707 300.846C99.5822 303.173 107.548 301.741 114.184 300.139C114.644 300.03 115.104 299.921 115.578 299.809C123.859 297.837 132.071 295.614 140.201 293.09C142.585 292.352 144.985 291.694 147.402 291.072C148.169 290.866 148.928 290.629 149.685 290.386C149.813 290.129 149.942 289.871 150.075 289.606C150.799 289.329 150.799 289.329 151.763 289.07C152.307 288.919 152.307 288.919 152.861 288.765C153.461 288.602 153.461 288.602 154.073 288.436C159.713 286.841 165.235 284.948 170.751 282.974C171.02 282.878 171.29 282.781 171.567 282.682C190.927 275.754 210.109 268.12 228.872 259.704C230.143 259.135 231.415 258.571 232.687 258.008C239.307 255.068 245.868 252.014 252.412 248.911C253.891 248.211 255.371 247.514 256.854 246.824C260.063 245.326 263.223 243.761 266.348 242.095C268.32 241.043 270.302 240.011 272.292 238.994C278.45 235.846 284.545 232.627 290.518 229.137C290.759 228.997 290.999 228.857 291.247 228.712C292.878 227.759 294.508 226.802 296.136 225.842C296.67 225.526 297.205 225.211 297.74 224.897C301.294 222.803 304.752 220.6 308.167 218.286C309.151 217.624 310.142 216.973 311.133 216.322C314.358 214.204 317.471 211.946 320.558 209.631C320.882 209.39 320.882 209.39 321.212 209.144C330.38 202.311 338.944 194.708 343.965 184.273C344.114 184 344.263 183.726 344.416 183.444C345.807 180.558 345.631 176.385 344.82 173.333C342.997 169.266 339.253 167.019 335.382 165.157C334.986 164.961 334.591 164.764 334.183 164.561C327.698 161.545 320.573 160.573 313.535 159.696C313.535 159.567 313.535 159.438 313.535 159.306Z" fill="#AF1935"/>
<path d="M318.217 240.451C332.348 268.713 332.348 268.713 332.874 269.765C333.219 270.456 333.565 271.146 333.91 271.837C334.694 273.404 335.477 274.971 336.26 276.538C337.37 278.758 338.48 280.978 339.596 283.195C339.76 283.521 339.924 283.848 340.093 284.185C340.41 284.814 340.727 285.443 341.044 286.071C342.119 288.213 343.159 290.369 344.186 292.533C346.472 297.343 348.836 302.108 351.236 306.861C352.116 308.605 352.993 310.35 353.871 312.095C355.493 315.323 357.118 318.55 358.747 321.775C359.891 324.039 361.031 326.306 362.169 328.574C362.601 329.434 363.035 330.294 363.47 331.152C364.073 332.342 364.671 333.535 365.268 334.728C365.449 335.082 365.629 335.435 365.816 335.8C365.976 336.123 366.137 336.447 366.302 336.78C366.444 337.061 366.586 337.341 366.731 337.631C366.982 338.371 366.982 338.371 366.592 339.541C364.213 338.752 361.834 337.961 359.456 337.17C358.65 336.902 357.844 336.634 357.037 336.366C355.866 335.978 354.695 335.588 353.524 335.198C353.175 335.082 352.825 334.966 352.464 334.847C350.253 334.11 348.053 333.345 345.856 332.566C342.498 331.375 339.125 330.23 335.748 329.093C335.128 328.884 334.507 328.675 333.887 328.466C332.585 328.027 331.283 327.588 329.98 327.15C326.59 326.008 323.201 324.864 319.811 323.72C319.314 323.552 319.314 323.552 318.807 323.381C312.254 321.17 305.707 318.941 299.164 316.7C295.504 315.447 291.842 314.202 288.18 312.957C281.939 310.834 275.699 308.706 269.468 306.556C266.723 305.61 263.974 304.68 261.219 303.766C261.01 303.697 260.869 303.504 260.869 303.284C260.869 303.044 261.037 302.834 261.271 302.783C261.601 302.711 261.731 302.683 262.264 302.567C276.438 300.002 277.638 299.785 287.433 293.382C289.367 292.117 291.081 290.332 291.104 288.021C291.128 287.217 291.092 286.41 290.911 285.626C289.88 281.153 287.067 276.874 284.983 272.879C284.277 271.524 283.573 270.168 282.87 268.811C282.709 268.505 282.549 268.199 282.383 267.883C281.671 266.509 281.057 265.174 280.576 263.72C280.453 263.348 280.622 262.944 280.968 262.758C292.282 256.636 303.124 249.743 313.882 242.699C314.497 242.297 315.113 241.898 315.73 241.499C316.049 241.291 316.368 241.084 316.696 240.87C317.437 240.451 317.437 240.451 318.217 240.451Z" fill="#AF1935"/>
<path d="M221.077 199.488C221.682 200.609 222.054 201.658 222.349 202.895C222.438 203.267 222.527 203.638 222.619 204.02C222.714 204.424 222.808 204.827 222.905 205.242C223.005 205.663 223.105 206.083 223.208 206.517C224.195 210.711 225.11 214.921 226.008 219.135C226.063 219.393 226.119 219.652 226.176 219.918C226.327 220.622 226.477 221.325 226.626 222.028C227.089 224.431 227.089 224.431 228.519 226.294C228.854 226.471 229.189 226.648 229.534 226.83C229.916 227.037 230.298 227.244 230.692 227.457C231.107 227.674 231.523 227.89 231.951 228.113C232.833 228.589 233.715 229.066 234.597 229.544C234.827 229.667 235.057 229.791 235.294 229.918C237.796 231.259 240.266 232.655 242.732 234.062C243.451 234.472 244.171 234.878 244.892 235.284C245.552 235.659 245.552 235.659 246.224 236.042C246.614 236.263 247.003 236.483 247.404 236.71C248.264 237.253 248.86 237.774 249.555 238.5C249.293 238.58 249.031 238.659 248.76 238.741C246.264 239.499 243.769 240.256 241.273 241.013C239.99 241.403 238.708 241.792 237.425 242.181C235.944 242.63 234.464 243.079 232.983 243.529C232.531 243.666 232.08 243.803 231.614 243.944C230.744 244.208 229.874 244.474 229.004 244.741C228.107 245.012 227.206 245.273 226.303 245.526C225.851 245.656 225.399 245.786 224.933 245.919C224.527 246.032 224.12 246.145 223.701 246.262C221.899 246.991 221.085 248.282 220.126 249.911C219.761 250.482 219.396 251.053 219.03 251.624C218.853 251.905 218.676 252.187 218.494 252.477C216.83 255.097 215.493 256.813 212.616 258.079C212.207 258.27 212.207 258.27 211.79 258.466C211.244 258.72 210.696 258.971 210.146 259.218C209.444 259.535 208.748 259.864 208.053 260.196C205.262 261.517 205.262 261.517 203.911 261.517C203.707 260.493 203.502 259.47 203.299 258.446C203.12 257.558 202.935 256.672 202.744 255.786C202.305 253.715 201.916 251.733 201.868 249.612C201.772 247.525 201.578 245.736 200.4 243.962C197.861 241.675 194.777 240.12 191.766 238.546C189.247 237.229 186.832 235.763 184.42 234.26C183.756 233.849 183.089 233.443 182.421 233.038C182.02 232.793 181.619 232.548 181.207 232.296C180.677 231.973 180.677 231.973 180.136 231.644C179.334 231.088 179.334 231.088 178.944 230.307C179.381 230.187 179.381 230.187 179.827 230.064C185.468 228.512 191.106 226.955 196.738 225.371C198.957 224.748 201.179 224.135 203.404 223.536C205.052 223.076 205.645 222.805 206.575 221.374C206.788 221.051 207 220.727 207.219 220.394C207.447 220.04 207.675 219.686 207.91 219.322C208.149 218.956 208.389 218.59 208.635 218.214C209.404 217.037 210.169 215.858 210.934 214.678C211.932 213.145 212.932 211.613 213.933 210.081C214.175 209.709 214.417 209.337 214.667 208.954C216.752 205.762 218.896 202.615 221.077 199.488Z" fill="#AF1935"/>
<path d="M217.029 228.576C218.79 229.443 219.977 230.393 220.687 232.258C221.047 234.667 220.966 236.86 219.516 238.89C217.342 241.018 215.865 241.369 212.878 241.341C210.801 241.145 209.801 240.157 208.471 238.646C207.115 236.738 207.189 234.939 207.422 232.648C209.358 228.705 212.893 226.973 217.029 228.576Z" fill="#060101"/>
</g>
<defs>
<clipPath id="clip0_54_9">
<rect width="413.918" height="387" rx="70" fill="white"/>
</clipPath>
</defs>
</svg>
